<svg width="123" height="114" viewBox="0 0 123 114" fill="none" xmlns="http://www.w3.org/2000/svg">
<path d="M3.40007 92.4141C-0.999928 87.6141 0.566739 84.4141 1.90007 83.4141C7.39953 78.9141 18.6984 69.7141 19.8984 68.9141C21.3984 67.9141 29.8984 66.4141 36.3984 66.4141C42.8984 66.4141 55.3984 74.4141 61.3984 75.9141C66.1984 77.1141 78.0651 76.4141 83.3984 75.9141C84.8984 76.9141 87.0984 80.2141 83.8984 85.4141C79.8984 91.9141 52.8984 88.9141 48.3984 88.9141C44.7984 88.9141 45.5651 89.9141 46.3984 90.4141C52.0651 93.0807 65.6984 97.8141 74.8984 95.4141C86.3984 92.4141 86.3984 90.9141 90.3984 87.4141C93.5984 84.6141 91.7318 78.2474 90.3984 75.4141C91.5984 75.8141 97.5651 71.2474 100.398 68.9141C107.198 61.3141 113.565 57.4141 115.898 56.4141C123.498 56.4141 122.732 63.4141 121.398 66.9141C113.398 79.2474 93.7984 105.114 79.3984 109.914C61.3984 115.914 55.3984 112.414 45.3984 109.414C35.3984 106.414 24.8984 105.914 19.8984 107.914C14.8984 109.914 8.90007 98.4141 3.40007 92.4141Z" fill="#E74C3C" stroke="#E74C3C"/>
<path d="M93.9002 4.41395C79.9002 -5.58605 69.4002 5.91395 65.9002 12.914C60.0669 6.74732 45.3002 -2.98594 32.9002 7.41406C20.5002 17.8141 26.0669 32.4141 30.4002 38.4141L65.9002 69.9141L99.8984 34.4141C102.898 25.4141 107.9 14.414 93.9002 4.41395Z" fill="#E74C3C" stroke="#E74C3C"/>
</svg>
